<?xml version="1.0" encoding="UTF-8" standalone="no"?>
<svg
   xmlns:dc="http://purl.org/dc/elements/1.1/"
   xmlns:cc="http://creativecommons.org/ns#"
   xmlns:rdf="http://www.w3.org/1999/02/22-rdf-syntax-ns#"
   xmlns:svg="http://www.w3.org/2000/svg"
   xmlns="http://www.w3.org/2000/svg"
   viewBox="0 0 2666.6667 2666.6667"
   height="2666.6667"
   width="2666.6667"
   xml:space="preserve"
   id="svg2"
   version="1.1"><metadata
     id="metadata8"><rdf:RDF><cc:Work
         rdf:about=""><dc:format>image/svg+xml</dc:format><dc:type
           rdf:resource="http://purl.org/dc/dcmitype/StillImage" /></cc:Work></rdf:RDF></metadata><defs
     id="defs6"><clipPath
       id="clipPath18"
       clipPathUnits="userSpaceOnUse"><path
         id="path16"
         d="M 0,2000 H 2000 V 0 H 0 Z" /></clipPath></defs><g
     transform="matrix(1.3333333,0,0,-1.3333333,0,2666.6667)"
     id="g10"><g
       id="g12"><g
         clip-path="url(#clipPath18)"
         id="g14"><g
           transform="translate(326.3571,936.8127)"
           id="g20"><path
             id="path22"
             style="fill:#285E2D;fill-opacity:1;fill-rule:nonzero;stroke:none"
             d="m 0,0 -0.006,0.003 c 1.267,0.747 2.534,1.494 3.795,2.251 2.299,1.389 4.587,2.795 6.865,4.216 0.879,0.548 2.525,1.107 2.759,2.3 0.011,0.007 0.021,0.013 0.032,0.02 0,-0.007 0,-0.015 0,-0.022 C 13.453,7.36 13.46,5.952 13.467,4.544 13.471,3.82 13.475,3.096 13.478,2.372 h 0.017 c 0.004,-12.842 0.008,-25.684 0.011,-38.527 h -67.662 z m 17.087,2.372 c 0.012,2.325 0.024,4.65 0.036,6.975 0.002,0.492 0.005,0.985 0.007,1.477 0.001,0.123 4.115,2.453 4.517,2.719 1.585,1.046 3.159,2.108 4.731,3.172 6.066,4.106 12.023,8.371 17.901,12.74 C 44.326,20.427 44.373,11.4 44.42,2.372 h 0.016 c 0.003,-10.823 0.007,-21.647 0.01,-32.471 l -9.793,-6.056 H 17.059 c 0.003,12.843 0.007,25.685 0.011,38.527 z m 27.361,-38.527 h -0.512 l 0.512,0.318 c 0,-0.106 0,-0.212 0,-0.318 m 34.924,21.979 c 0.002,-7.326 0.005,-14.652 0.007,-21.979 H 48 c 0,0.841 10e-4,1.681 10e-4,2.522 z M 48.012,2.372 h 0.016 c 0.052,10.006 0.104,20.011 0.156,30.017 10.618,8.097 20.917,16.59 30.879,25.482 0.096,-18.5 0.192,-36.999 0.288,-55.499 h 0.016 c 10e-4,-3.624 0.002,-7.248 0.003,-10.873 L 48.003,-27.899 c 0.003,10.091 0.006,20.181 0.009,30.271 m 64.53,4.026 c 0.008,-1.458 0.015,-2.916 0.023,-4.373 h 0.007 c 0.006,-12.727 0.012,-25.453 0.018,-38.18 H 82.931 c 0.003,8.064 0.005,16.128 0.008,24.191 z M 82.943,2.372 h 0.016 c 0.103,19.766 0.206,39.532 0.308,59.298 9.971,9.131 19.577,18.641 28.84,28.488 0.094,-18.003 0.187,-36.005 0.281,-54.008 0.042,-8.052 0.083,-16.103 0.125,-24.155 L 88,-3.164 c -0.323,-0.17 -0.647,-0.343 -0.968,-0.518 h 0.131 L 82.94,-6.293 c 0.001,2.888 0.002,5.777 0.003,8.665 m 33.311,15.896 c 0.049,9.327 0.097,18.653 0.146,27.98 0.084,16.264 0.169,32.528 0.253,48.792 10.557,11.56 20.602,23.543 30.174,35.927 0.087,-16.723 0.174,-33.446 0.261,-50.169 0.057,-11.111 0.115,-22.221 0.173,-33.332 0.016,-3.163 0.032,-6.326 0.049,-9.489 0.003,-0.597 0.006,-1.193 0.009,-1.789 0.001,-0.102 -0.739,-0.478 -0.948,-0.641 -2.983,-2.321 -6.004,-4.593 -9.039,-6.843 -4.227,-3.133 -8.517,-6.181 -12.841,-9.179 -1.96,-1.358 -3.935,-2.693 -5.914,-4.023 -0.779,-0.524 -1.561,-1.042 -2.345,-1.559 0.007,1.442 0.015,2.883 0.022,4.325 m 4.592,-6.287 c 4.776,3.114 9.485,6.331 14.152,9.607 2.339,1.642 4.658,3.315 6.969,4.997 1.179,0.858 3.65,2.441 3.861,3.439 0.007,0.005 0.014,0.01 0.021,0.015 0.047,-9.121 0.094,-18.242 0.142,-27.363 10e-4,-0.217 0.002,-0.434 0.003,-0.651 h 0.007 c 0.006,-12.727 0.012,-25.453 0.018,-38.18 h -27.387 c 0.006,12.727 0.012,25.453 0.018,38.18 h 0.007 c 0.011,2.008 0.021,4.016 0.031,6.024 0.014,2.725 -0.257,2.357 2.158,3.932 m 30.256,-9.956 c 0.008,1.686 0.017,3.373 0.026,5.06 0.04,7.727 0.08,15.454 0.12,23.181 0.005,0.896 0.009,1.793 0.014,2.69 0.007,1.354 0.982,1.342 2.147,2.247 7.201,5.592 14.26,11.358 21.164,17.314 2.036,1.766 4.052,3.554 6.062,5.35 0.094,-18.091 0.188,-36.181 0.282,-54.272 l 0.008,-1.57 h 0.007 l 0.018,-38.18 h -29.873 c 0.006,12.727 0.012,25.453 0.018,38.18 z m 0.703,135.451 c 11.154,14.925 21.614,30.354 31.369,46.228 0.19,-36.494 0.379,-72.988 0.568,-109.482 0.012,-2.148 0.824,-5.79 -0.731,-7.268 -10.146,-9.649 -20.772,-18.779 -31.715,-27.51 0.169,32.677 0.339,65.355 0.509,98.032 M 187.722,2.025 c 0.085,16.396 0.17,32.793 0.255,49.19 0.023,4.308 0.045,8.617 0.067,12.926 0.002,0.228 0.003,0.455 0.004,0.683 0.002,0.459 3.547,3.131 4.034,3.592 1.741,1.648 3.463,3.315 5.181,4.986 5.603,5.452 11.061,11.053 16.417,16.749 0.152,-29.376 0.305,-58.751 0.457,-88.126 h 0.007 c 0.006,-12.727 0.012,-25.453 0.018,-38.18 h -26.465 c 0.006,12.727 0.012,25.453 0.018,38.18 z m 0.939,180.875 c 0.017,3.336 0.034,6.673 0.051,10.009 10.51,17.81 20.181,36.094 29.062,54.768 0.191,-36.842 0.382,-73.684 0.573,-110.526 0.051,-9.794 0.102,-19.587 0.153,-29.381 0.014,-2.794 0.368,-3.52 -1.455,-5.6 -9.221,-10.517 -18.926,-20.615 -28.961,-30.358 0.192,37.03 0.384,74.059 0.577,111.088 M 222.654,2.025 c 0.104,20.064 0.208,40.129 0.312,60.194 0.051,9.816 0.102,19.632 0.153,29.449 0.013,2.551 0.026,5.102 0.039,7.653 0.003,0.437 0.005,0.875 0.007,1.312 0.004,0.676 2.995,3.258 3.537,3.875 2.085,2.373 4.14,4.771 6.181,7.181 0.285,0.338 0.569,0.676 0.853,1.013 5.014,5.988 9.89,12.085 14.664,18.264 0.191,-36.86 0.382,-73.72 0.573,-110.581 0.032,-6.12 0.064,-12.24 0.096,-18.36 h 0.007 c 0.006,-12.727 0.012,-25.453 0.018,-38.18 h -26.465 c 0.006,12.727 0.012,25.453 0.018,38.18 z m 1.129,217.694 c 0.072,13.813 0.143,27.625 0.215,41.438 9.696,21.652 18.36,43.751 26.039,66.196 0.153,-34.022 0.307,-68.044 0.46,-102.067 0.097,-21.348 0.193,-42.696 0.289,-64.044 0.023,-5.126 0.046,-10.252 0.07,-15.378 0.011,-2.617 -2.501,-4.63 -3.999,-6.667 -7.486,-10.179 -15.343,-20.081 -23.505,-29.726 -0.047,-0.055 -0.095,-0.111 -0.142,-0.166 0.191,36.804 0.382,73.609 0.573,110.414 M 255.059,2.025 c 0.016,3.607 0.033,7.213 0.049,10.82 0.108,24.005 0.217,48.011 0.325,72.016 0.068,14.915 0.135,29.83 0.202,44.745 0.015,3.408 0.031,6.816 0.046,10.224 10e-4,0.265 0.003,0.529 0.004,0.794 0.002,0.5 0.034,0.013 0.768,1.009 1.392,1.888 2.767,3.789 4.137,5.694 4.946,6.875 9.719,13.874 14.369,20.953 V -36.155 h -19.921 c 0.005,12.727 0.01,25.453 0.015,38.18 z m 1.128,249.835 c 0.144,31.882 0.288,63.765 0.432,95.647 7.123,22.904 13.245,46.101 18.34,69.538 V 180.799 c 0,-1.385 -3.034,-4.759 -3.815,-5.999 -1.828,-2.903 -3.692,-5.783 -5.57,-8.654 -3.2,-4.894 -6.495,-9.726 -9.84,-14.523 0.151,33.412 0.302,66.824 0.453,100.237 m 46.781,118.539 v 38.623 c 7.771,-16.01 15.994,-31.804 24.684,-47.333 h -21.168 c -4.627,0 -3.516,6.221 -3.516,8.71 m 0,62.919 c 0.726,4.286 7.472,3.112 10.104,3.112 h 50.194 c 4.477,0 3.553,-5.258 3.553,-7.722 v -8.209 c 0,-4.248 -1.459,-8.61 -2.365,-12.745 -2.584,-11.788 -5.467,-23.51 -8.576,-35.17 -0.312,-1.169 -2.622,-10.895 -2.898,-10.895 h -16.358 c -11.307,19.969 -21.843,40.377 -31.624,61.13 -0.687,1.457 -1.361,2.898 -2.03,4.332 z m 59.503,-71.604 c 1.5,5.152 2.943,10.32 4.348,15.499 v -5.221 c 0,-3.944 1.253,-9.869 -4.348,-10.278 m -4.378,-35.916 c 0.003,0.608 0.005,1.217 0.008,1.825 0.01,2.194 0.02,4.387 0.03,6.581 0.001,0.227 0.007,0.387 0.012,0.497 h 5.176 c 4.39,-0.567 3.5,-6.076 3.5,-8.748 v -13.661 c -2.954,4.473 -5.863,8.976 -8.726,13.506 m 8.726,-27.499 v -49.891 c 0,-5.027 -5.438,-4.05 -8.199,-4.05 -0.564,0 -0.799,0.025 -0.895,0.013 10e-4,0.056 10e-4,0.112 10e-4,0.168 0.005,1.021 0.009,2.043 0.014,3.064 0.082,18.09 0.163,36.181 0.245,54.271 0.014,3.189 0.029,6.377 0.043,9.566 2.885,-4.411 5.816,-8.791 8.791,-13.141 m -3.871,-192.255 h -5.532 c -0.132,0 -0.235,0.002 -0.315,0.005 10e-4,0.28 0.002,0.56 0.004,0.839 0.012,2.694 0.024,5.387 0.036,8.081 0.047,10.304 0.093,20.608 0.14,30.913 0.096,21.208 0.191,42.416 0.287,63.624 0.006,1.314 0.012,2.629 0.018,3.944 0.09,-0.028 0.203,-0.049 0.367,-0.049 h 5.317 c 4.068,-0.646 3.549,-5.427 3.549,-8.479 v -79.944 c 0,-3.354 1.933,-18.934 -3.871,-18.934 m 61.828,257.948 c -0.605,-11.589 -0.605,-25.88 -0.281,-24.875 0.145,-34.235 0.291,-68.47 0.436,-102.705 -10.485,11.678 -20.464,23.797 -29.995,36.265 -0.002,57.885 -0.008,111.865 -0.022,149.871 9.247,-19.867 19.216,-39.403 29.862,-58.556 m -67.84,-293.14 c 0.083,-0.032 0.192,-0.054 0.343,-0.054 h 5.982 c 4.186,-0.713 3.558,-6.704 3.558,-9.979 l 0.134,-96.974 h -10.332 c 0.031,21.922 0.063,43.843 0.095,65.764 0.013,-0.001 0.026,-0.001 0.04,-0.003 0.016,3.612 0.032,7.224 0.049,10.836 0.037,8.211 0.074,16.423 0.111,24.634 0.008,1.881 0.017,3.763 0.025,5.645 0.001,0.049 -0.002,0.091 -0.005,0.131 m -32.63,-51.401 0.015,9.434 c 0.015,-0.001 0.029,-0.001 0.044,-0.002 0.043,8.221 0.085,16.443 0.128,24.664 0.022,4.253 0.044,8.507 0.066,12.76 0.007,1.185 0.013,2.369 0.019,3.553 0.003,0.549 0.036,0.817 0.041,0.938 h 28.148 c 0.061,-13.663 0.123,-27.326 0.185,-40.989 0.013,0 0.027,-0.001 0.041,-0.002 0.005,-3.622 0.01,-7.245 0.015,-10.867 0.027,-18.365 0.053,-36.73 0.08,-55.095 h -28.875 c 0.031,18.536 0.062,37.071 0.093,55.606 m -19.491,50.574 c 0.58,0.258 1.161,0.515 1.741,0.773 h 13.439 c 0.12,0 0.213,0.015 0.285,0.038 -0.009,-0.071 -0.016,-0.151 -0.015,-0.253 0.005,-1.07 0.011,-2.14 0.017,-3.209 0.05,-9.668 0.1,-19.336 0.15,-29.003 0.016,-3.095 0.032,-6.19 0.048,-9.285 0.015,-10e-4 0.03,-10e-4 0.045,-0.003 0.032,-19.082 0.063,-38.165 0.095,-57.248 0.004,-2.663 0.009,-5.326 0.013,-7.99 h -17.715 l 0.05,96.74 c 0,3.228 -0.399,6.794 1.847,9.44 m 12.946,174.333 c 0.532,1.104 1.058,2.21 1.585,3.316 0.005,-1.105 0.011,-2.211 0.017,-3.316 z m 1.431,-30.957 c 0.144,0 0.253,0.018 0.338,0.044 -0.003,-0.038 -0.006,-0.077 -0.006,-0.124 0.005,-0.872 0.009,-1.744 0.014,-2.616 0.043,-8.378 0.087,-16.756 0.13,-25.134 0.119,-22.912 0.238,-45.824 0.357,-68.737 0.016,-3.038 0.031,-6.076 0.047,-9.113 0.003,-0.559 0.006,-1.118 0.009,-1.677 h -10.82 c -3.33,0 -6.293,0.458 -6.293,5.04 v 97.347 c 0.41,5.389 3.851,4.97 7.692,4.97 z m 24.76,118.84 c -0.895,-2.763 -1.815,-5.517 -2.741,-8.27 -2.001,-5.946 -4.089,-11.862 -6.232,-17.758 -4.059,-11.167 -8.402,-22.232 -12.99,-33.192 -2.371,-5.666 -4.833,-11.293 -7.352,-16.895 -1.207,-2.681 -2.438,-5.352 -3.677,-8.019 -0.116,-0.249 -1.568,-3.749 -1.629,-3.749 h -2.262 c -4.838,0 -4.101,5.208 -4.101,8.019 v 78.354 c 0.584,5.659 8.942,3.97 12.288,3.97 h 28.13 c 0.312,-0.515 0.623,-1.03 0.937,-1.544 -0.15,-0.329 -0.287,-0.656 -0.371,-0.916 m 8.171,-118.84 c 0.16,-35.441 0.32,-70.882 0.48,-106.323 0.002,-0.345 0.003,-0.69 0.005,-1.034 h -27.843 l 0.026,4.906 c 0.112,21.601 0.224,43.201 0.336,64.802 0.063,12.137 0.126,24.275 0.189,36.412 0.002,0.413 0.004,0.825 0.006,1.237 z m -0.304,30.957 h -26.336 c 0.019,3.593 0.037,7.186 0.056,10.78 0.01,1.917 0.02,3.834 0.03,5.752 0.006,1.232 1.177,2.897 1.674,4.018 1.157,2.611 2.292,5.233 3.42,7.858 7.159,16.67 13.668,33.62 19.622,50.758 0.448,-0.713 0.9,-1.424 1.351,-2.136 0.068,-15.08 0.136,-30.161 0.204,-45.242 0.043,-9.559 0.086,-19.119 0.13,-28.678 0.004,-0.964 0.008,-1.928 0.013,-2.892 0,-0.094 0.007,-0.168 0.016,-0.235 -0.051,0.01 -0.109,0.017 -0.18,0.017 M 423.432,13.272 c 0.031,-6.497 0.063,-12.993 0.095,-19.49 h 0.007 c 0.004,-9.979 0.009,-19.958 0.013,-29.937 h -28.625 c 0.004,37.324 0.018,173.424 0.015,296.163 2.885,-3.656 5.803,-7.285 8.766,-10.878 6.846,-8.299 13.926,-16.433 21.248,-24.348 -0.125,-36.299 -1.698,-174.91 -1.519,-211.51 m 6.085,-19.49 c 0.016,3.829 0.033,7.657 0.049,11.486 0.108,25.481 0.217,50.963 0.325,76.444 0.068,15.832 0.233,54.732 0.248,58.35 10e-4,0.199 0.178,41.904 0.336,78.842 16.021,-16.789 33.194,-32.486 51.648,-46.52 -0.494,-55.706 -1.251,-133.125 -1.124,-159.112 0.032,-6.497 0.064,-12.993 0.095,-19.49 h 0.007 c 0.005,-9.979 0.009,-19.958 0.014,-29.937 H 429.5 c 0.004,9.979 0.007,19.958 0.011,29.937 z m 2.334,357.69 c 15.354,-26.619 32.097,-52.486 50.487,-77.119 0.062,-14.527 0.123,-29.053 0.185,-43.579 0.028,-6.706 -0.11,-25.063 -0.314,-48.602 -18.518,14.553 -35.703,30.846 -51.686,48.109 0.046,10.935 0.089,20.955 0.122,28.7 0.091,21.376 0.02,64.707 -0.426,95.356 0.546,-0.954 1.083,-1.913 1.632,-2.865 m 55.234,-357.69 c 0.016,3.829 0.032,7.657 0.049,11.486 0.108,25.481 0.216,50.963 0.325,76.444 0.067,15.832 0.232,54.732 0.248,58.35 0,0.105 0.05,11.711 0.119,28.066 4.222,-3.086 8.506,-6.089 12.861,-8.993 13.745,-9.168 28.185,-17.285 43.185,-24.094 -0.437,-48.649 -0.888,-101.246 -0.788,-121.769 0.032,-6.497 0.064,-12.993 0.095,-19.49 h 0.008 c 0.004,-9.979 0.008,-19.958 0.013,-29.937 h -56.133 c 0.004,9.979 0.008,19.958 0.012,29.937 z m 1.127,265.199 c 0.01,2.289 0.018,4.837 0.024,7.589 4.53,-5.89 9.155,-11.708 13.885,-17.44 13.221,-16.022 27.306,-31.435 42.348,-45.825 -0.125,-16.138 -0.318,-37.279 -0.52,-59.748 -4.766,2.234 -9.474,4.607 -14.114,7.118 -14.694,7.952 -28.667,17.093 -41.968,27.141 0.114,26.797 0.261,61.393 0.345,81.165 M 549.17,-6.218 c 0.016,3.829 0.033,7.657 0.049,11.486 0.108,25.481 0.217,50.963 0.325,76.444 0.051,12.122 0.16,37.764 0.216,50.743 15.974,-6.819 32.552,-12.145 49.581,-15.677 -0.378,-42.971 -0.713,-85.536 -0.625,-103.506 0.031,-6.497 0.063,-12.993 0.095,-19.49 h 0.007 c 0.004,-9.979 0.009,-19.958 0.013,-29.937 h -49.679 c 0.004,9.979 0.008,19.958 0.012,29.937 z m 0.869,204.284 c 15.353,-14.202 31.686,-27.321 49.098,-38.931 0.192,-0.129 0.388,-0.252 0.58,-0.38 -0.098,-10.924 -0.202,-22.398 -0.305,-33.953 -17.01,3.62 -33.627,9.066 -49.616,16.102 0.02,4.848 0.127,29.97 0.243,57.162 M 604.801,-6.218 c 0.017,3.829 0.033,7.657 0.049,11.486 0.108,25.481 0.217,50.963 0.325,76.444 0.034,7.948 0.093,21.709 0.144,33.902 5.678,-1.03 11.402,-1.865 17.169,-2.482 11.464,-1.228 22.95,-1.57 34.379,-1.094 -0.361,-41.33 -0.668,-81.457 -0.584,-98.766 0.032,-6.497 0.064,-12.993 0.096,-19.49 h 0.006 c 0.005,-9.979 0.009,-19.958 0.014,-29.937 h -51.615 c 0.003,9.979 0.007,19.958 0.011,29.937 z m 0.622,146.28 c 10e-4,0.074 0.025,5.849 0.064,14.958 16.327,-10.34 33.571,-19.192 51.529,-26.137 -0.027,-3.019 -0.054,-6.046 -0.081,-9.075 -0.454,-0.019 -0.908,-0.04 -1.362,-0.055 -16.936,-0.574 -33.746,0.789 -50.219,3.865 0.036,8.476 0.063,15.056 0.069,16.444 m 56.946,-146.28 c 0.016,3.829 0.032,7.657 0.049,11.486 0.108,25.481 0.217,50.963 0.325,76.444 0.031,7.25 0.082,19.333 0.13,30.653 11.335,0.761 22.599,2.325 33.709,4.666 0.691,-0.147 1.384,-0.287 2.077,-0.428 -0.398,-44.787 -0.765,-90.248 -0.674,-108.983 0.032,-6.496 0.064,-12.993 0.095,-19.489 h 0.007 c 0.004,-8.095 0.008,-16.191 0.011,-24.286 h -35.747 c 0.004,9.979 0.008,19.958 0.012,29.937 z m 0.565,132.89 c 5.031,-1.812 10.113,-3.478 15.245,-4.982 -5.061,-0.691 -10.154,-1.213 -15.273,-1.56 0.01,2.298 0.019,4.494 0.028,6.542 m 41.137,-138.541 c 0.016,3.828 0.032,7.657 0.048,11.486 0.109,25.481 0.217,50.963 0.326,76.444 0.039,9.177 0.111,26.095 0.167,39.407 5.414,-0.964 10.87,-1.748 16.365,-2.336 13.047,-1.397 26.124,-1.655 39.111,-0.854 -0.379,-43.058 -0.715,-85.754 -0.627,-103.761 0.031,-6.496 0.063,-12.993 0.095,-19.489 h 0.007 c 0.004,-8.394 0.007,-16.789 0.011,-25.183 h -55.519 c 0.003,8.095 0.006,16.191 0.01,24.286 z m 48.333,147.712 c 2.666,1.257 5.308,2.56 7.929,3.9 -0.058,-6.478 -0.117,-13.071 -0.176,-19.691 -2.025,-0.124 -4.052,-0.231 -6.084,-0.299 -13.016,-0.441 -25.957,0.265 -38.73,2.008 12.663,3.716 25.061,8.427 37.061,14.082 m 13.142,-146.815 c 0.016,3.828 0.033,7.657 0.049,11.486 0.108,25.481 0.217,50.963 0.325,76.444 0.036,8.355 0.099,23.134 0.152,35.762 21.708,1.887 43.106,6.743 63.629,14.259 -0.413,-46.279 -0.81,-94.314 -0.715,-113.707 0.032,-6.497 0.063,-12.993 0.095,-19.49 h 0.007 c 0.005,-9.979 0.009,-19.958 0.013,-29.937 H 765.53 c 0.004,8.394 0.007,16.789 0.01,25.183 z m 0.622,146.28 c 10e-4,0.05 0.012,2.819 0.032,7.523 23.122,12.516 44.466,28.202 64.051,45.798 -0.133,-15.67 -0.303,-34.14 -0.474,-53.237 -20.422,-7.8 -41.789,-12.961 -63.672,-14.901 0.033,7.682 0.058,13.519 0.063,14.817 M 835.071,-6.218 c 0.017,3.829 0.033,7.657 0.049,11.486 0.109,25.481 0.217,50.963 0.326,76.444 0.047,11.186 0.144,33.884 0.202,47.521 5.159,2.036 10.258,4.241 15.288,6.61 13.177,6.209 25.807,13.466 37.897,21.551 -0.484,-53.803 -1.105,-120.396 -0.989,-144.122 0.032,-6.497 0.064,-12.993 0.095,-19.49 h 0.007 c 0.005,-9.979 0.009,-19.958 0.014,-29.937 h -52.906 c 0.004,9.979 0.008,19.958 0.011,29.937 z m 0.623,146.28 c 0,0.154 0.107,25.266 0.228,53.759 6.693,6.246 13.175,12.705 19.444,19.33 11.977,12.659 23.25,25.972 33.908,39.77 0.031,-7.383 0.063,-14.765 0.094,-22.147 0.035,-8.096 -0.175,-33.177 -0.449,-63.856 -4.439,-3.075 -8.956,-6.041 -13.556,-8.886 -12.681,-7.842 -25.953,-14.668 -39.679,-20.304 0.005,1.14 0.008,1.943 0.01,2.334 M 893.93,-6.218 c 0.016,3.829 0.032,7.657 0.049,11.486 0.108,25.481 0.217,50.963 0.325,76.444 0.067,15.832 0.232,54.732 0.248,58.35 0,0.089 0.037,8.608 0.091,21.311 19.482,13.649 37.52,29.427 54.123,46.412 -0.374,-50.9 -1.576,-162.276 -1.418,-194.513 0.032,-6.497 0.063,-12.993 0.095,-19.49 h 0.007 c 0.005,-9.979 0.009,-19.958 0.013,-29.937 h -53.551 c 0.004,9.979 0.008,19.958 0.012,29.937 z m 1.127,265.199 c 0.003,0.505 0.005,1.024 0.007,1.553 12.667,16.969 24.436,34.62 35.421,52.682 6.14,10.095 12.038,20.336 17.711,30.702 0.011,-3.23 0.088,-5.195 0.215,-4.801 0.154,-36.114 0.307,-72.229 0.461,-108.343 0.01,-2.442 -0.002,-6.43 -0.031,-11.648 -16.598,-17.607 -34.593,-33.928 -54.158,-48.119 0.117,27.468 0.283,66.48 0.374,87.974 M 953.433,-6.218 c 0.017,3.829 0.033,7.657 0.049,11.486 0.109,25.481 0.217,50.963 0.325,76.444 0.068,15.832 0.233,54.732 0.249,58.35 0,0.189 0.161,38.041 0.312,73.559 13.022,13.794 25.215,28.357 36.682,43.48 -0.003,-121.97 0.011,-256.223 0.015,-293.256 h -37.649 c 0.004,9.979 0.007,19.958 0.011,29.937 z m 24.684,410.557 c 4.507,10.096 8.871,20.277 12.961,30.563 -0.017,-38.601 -0.025,-99.297 -0.028,-164.74 -6.802,-9.301 -13.863,-18.411 -21.223,-27.277 -4.996,-6.019 -10.131,-11.941 -15.41,-17.738 0.055,12.915 0.106,24.892 0.144,33.834 0.092,21.521 0.019,65.293 -0.435,95.976 8.537,16.192 16.532,32.673 23.991,49.382 m 41.051,-279.361 v 79.944 c 0,3.052 -0.519,7.833 3.549,8.479 h 5.317 c 0.164,0 0.277,0.021 0.367,0.049 0.01,-1.315 0.012,-2.63 0.018,-3.944 0.096,-21.208 0.192,-42.416 0.287,-63.624 0.047,-10.305 0.093,-20.609 0.14,-30.913 0.012,-2.694 0.024,-5.387 0.036,-8.081 0,-0.279 0,-0.559 0,-0.839 -0.08,-0.003 -0.183,-0.005 -0.315,-0.005 h -5.532 c -5.804,0 -3.871,15.58 -3.871,18.934 m 0,247.014 v 5.22 c 1.405,-5.178 2.848,-10.346 4.348,-15.498 -5.6,0.409 -4.348,6.333 -4.348,10.278 m 0,-74.59 c 2.984,4.635 5.915,9.303 8.791,14 0.015,-3.176 0.029,-6.352 0.043,-9.528 0.082,-18.09 0.164,-36.181 0.245,-54.271 0,-1.021 0.01,-2.043 0.014,-3.064 0,-0.056 10e-4,-0.112 10e-4,-0.168 -0.095,0.012 -0.331,-0.013 -0.895,-0.013 -2.76,0 -8.199,-0.977 -8.199,4.05 z m 3.501,37.299 h 5.175 c 0,-0.11 0.011,-0.27 0.012,-0.497 0.01,-2.194 0.02,-4.387 0.03,-6.581 0,-0.384 0,-0.768 0.01,-1.151 -2.853,-4.854 -5.759,-9.678 -8.723,-14.467 v 13.948 c 0,2.672 -0.89,8.181 3.501,8.748 m 0.052,101.728 h 50.194 c 1.994,0 6.345,0.67 8.655,-0.868 -1.484,-3.662 -2.996,-7.311 -4.521,-10.948 -8.741,-20.855 -18.806,-42.222 -29.625,-62.924 h -14.417 c -0.276,0 -2.586,9.726 -2.898,10.895 -3.109,11.66 -5.992,23.382 -8.575,35.17 -0.907,4.135 -2.366,8.497 -2.366,12.745 v 8.209 c 0,2.464 -0.924,7.721 3.553,7.721 m 56.782,-74.74 h -23.267 c 7.228,14.022 14.057,28.251 20.487,42.65 2.137,4.785 4.237,9.591 6.296,14.417 v -48.357 c 0,-2.489 1.111,-8.71 -3.516,-8.71 m -14.136,-389.854 c 0.032,19.083 0.064,38.165 0.095,57.248 0.015,0.002 0.03,0.002 0.045,0.003 0.016,3.095 0.032,6.19 0.048,9.284 0.05,9.668 0.1,19.336 0.15,29.004 0.01,1.069 0.012,2.139 0.017,3.209 10e-4,0.102 -0.01,0.182 -0.015,0.253 0.072,-0.023 0.165,-0.038 0.285,-0.038 h 13.439 c 0.58,-0.258 1.161,-0.515 1.741,-0.773 2.246,-2.646 1.847,-6.212 1.847,-9.44 l 0.05,-96.74 h -17.715 c 0,2.664 0.01,5.327 0.013,7.99 m -3.999,98.963 c 0.01,-0.121 0.038,-0.389 0.041,-0.938 0.01,-1.184 0.013,-2.368 0.019,-3.553 0.022,-4.253 0.044,-8.507 0.066,-12.76 0.043,-8.221 0.085,-16.443 0.128,-24.664 0.015,0 0.029,0.001 0.044,0.002 l 0.016,-9.434 c 0.03,-18.535 0.061,-37.07 0.092,-55.606 H 1032.9 c 0.027,18.365 0.053,36.73 0.08,55.095 0,3.622 0.01,7.245 0.016,10.867 0.013,0.001 0.027,0.002 0.04,0.002 0.062,13.663 0.124,27.326 0.185,40.989 z m -0.703,142.603 c 0,-0.412 0,-0.824 0.01,-1.237 0.063,-12.137 0.126,-24.275 0.189,-36.412 0.112,-21.601 0.224,-43.201 0.336,-64.802 l 0.026,-4.906 h -27.842 c 10e-4,0.344 0,0.689 0,1.034 0.16,35.441 0.32,70.882 0.48,106.323 z m -5.34,59.365 c 1.127,-2.625 2.262,-5.247 3.419,-7.858 0.497,-1.121 1.668,-2.786 1.674,-4.018 0.01,-1.918 0.02,-3.835 0.03,-5.752 0.019,-3.594 0.037,-7.187 0.056,-10.78 h -26.336 c -0.071,0 -0.128,-0.007 -0.18,-0.017 0.01,0.066 0.016,0.141 0.017,0.235 0,0.964 0.01,1.928 0.013,2.892 0.043,9.559 0.086,19.119 0.129,28.678 l 0.207,45.892 c 0.391,0.663 0.786,1.323 1.175,1.987 6.001,-17.309 12.566,-34.426 19.796,-51.259 m 11.299,-28.408 c 0.01,1.105 0.012,2.211 0.017,3.316 0.527,-1.106 1.054,-2.212 1.585,-3.316 z m -0.166,-30.913 c 0.084,-0.026 0.193,-0.044 0.337,-0.044 h 8.532 c 3.841,0 7.282,0.419 7.692,-4.97 v -97.347 c 0,-4.582 -2.963,-5.04 -6.293,-5.04 h -10.82 c 0,0.559 0.01,1.118 0.01,1.677 0.016,3.037 0.032,6.075 0.047,9.113 0.119,22.912 0.238,45.825 0.357,68.737 0.044,8.378 0.087,16.756 0.13,25.134 0,0.872 0.01,1.744 0.014,2.616 0,0.047 0,0.085 0,0.124 m 12.46,30.913 h -2.262 c -0.061,0 -1.513,3.5 -1.629,3.749 -1.239,2.667 -2.47,5.338 -3.676,8.019 -2.52,5.601 -4.982,11.229 -7.353,16.895 -4.588,10.96 -8.931,22.025 -12.99,33.192 -2.143,5.896 -4.232,11.812 -6.232,17.758 -0.926,2.752 -1.846,5.507 -2.74,8.27 -0.159,0.489 -0.502,1.211 -0.772,1.747 0.135,0.238 0.272,0.475 0.406,0.713 h 29.061 c 3.346,0 11.704,1.689 12.288,-3.97 v -78.354 c 0,-2.811 0.737,-8.019 -4.101,-8.019 m -56.192,-173.56 h 5.982 c 0.151,0 0.26,0.022 0.343,0.054 0,-0.04 -0.01,-0.082 0,-0.131 0.01,-1.882 0.017,-3.764 0.025,-5.645 0.037,-8.212 0.074,-16.423 0.111,-24.634 0.016,-3.612 0.033,-7.224 0.049,-10.836 0.014,10e-4 0.027,0.002 0.041,0.003 0.031,-21.921 0.063,-43.842 0.094,-65.764 h -10.332 l 0.134,96.974 c 0,3.275 -0.628,9.266 3.558,9.979 m 102.672,76.529 c 1.369,-1.905 2.744,-3.806 4.136,-5.694 0.734,-0.996 0.766,-0.509 0.768,-1.009 0,-0.265 0,-0.529 0,-0.794 0.015,-3.408 0.031,-6.816 0.046,-10.224 0.067,-14.915 0.135,-29.83 0.202,-44.745 0.108,-24.005 0.217,-48.011 0.325,-72.016 0.016,-3.607 0.033,-7.213 0.049,-10.82 h 0.01 c 0.01,-12.727 0.01,-25.453 0.016,-38.18 H 1111.04 V 168.28 c 4.651,-7.079 9.424,-14.078 14.37,-20.953 m -14.37,269.718 c 5.095,-23.438 11.217,-46.634 18.34,-69.538 0.144,-31.882 0.288,-63.765 0.432,-95.647 0.151,-33.413 0.302,-66.825 0.453,-100.237 -3.344,4.797 -6.64,9.629 -9.84,14.523 -1.878,2.871 -3.742,5.751 -5.57,8.654 -0.781,1.24 -3.815,4.614 -3.815,5.999 z m 24.173,-255.803 c 0.096,21.348 0.192,42.696 0.289,64.044 0.153,34.023 0.307,68.045 0.46,102.067 7.679,-22.445 16.343,-44.544 26.039,-66.196 0.072,-13.813 0.143,-27.626 0.215,-41.438 0.191,-36.805 0.382,-73.61 0.573,-110.414 -0.047,0.055 -0.095,0.111 -0.142,0.166 -8.162,9.645 -16.019,19.547 -23.505,29.726 -1.498,2.037 -4.01,4.05 -3.998,6.667 0.023,5.126 0.046,10.252 0.069,15.378 m 27.628,-61.921 c 0.013,-2.551 0.026,-5.102 0.039,-7.653 0.051,-9.817 0.102,-19.633 0.153,-29.449 0.104,-20.065 0.208,-40.13 0.312,-60.194 h 0.01 c 0.01,-12.727 0.011,-25.453 0.017,-38.18 h -26.464 c 0,12.727 0.011,25.453 0.017,38.18 h 0.01 c 0.032,6.12 0.064,12.24 0.096,18.36 0.191,36.861 0.382,73.721 0.573,110.581 4.774,-6.18 9.65,-12.276 14.664,-18.264 0.284,-0.337 0.568,-0.675 0.853,-1.013 2.041,-2.41 4.096,-4.808 6.181,-7.181 0.542,-0.617 3.533,-3.199 3.537,-3.875 0,-0.437 0.01,-0.875 0.01,-1.312 m 4.658,8.449 c 0.051,9.794 0.102,19.587 0.153,29.381 0.191,36.842 0.382,73.684 0.574,110.526 8.88,-18.674 18.552,-36.958 29.061,-54.768 0.017,-3.336 0.034,-6.673 0.052,-10.009 0.192,-37.029 0.384,-74.059 0.576,-111.088 -10.035,9.743 -19.74,19.841 -28.961,30.358 -1.823,2.08 -1.469,2.806 -1.455,5.6 m 30.456,-43.629 c 0.022,-4.309 0.045,-8.618 0.067,-12.926 0.085,-16.397 0.17,-32.794 0.255,-49.19 h 0.01 c 0.01,-12.727 0.012,-25.453 0.018,-38.18 h -26.465 c 0.01,12.727 0.012,25.453 0.018,38.18 h 0.01 c 0.152,29.375 0.305,58.75 0.457,88.126 5.356,-5.696 10.813,-11.297 16.417,-16.749 1.718,-1.671 3.44,-3.338 5.181,-4.986 0.487,-0.461 4.032,-3.133 4.034,-3.592 10e-4,-0.228 0,-0.455 0,-0.683 m 4.302,10.081 c 0.189,36.494 0.378,72.988 0.568,109.482 9.755,-15.874 20.215,-31.303 31.369,-46.228 0.17,-32.677 0.34,-65.355 0.509,-98.032 -10.943,8.731 -21.569,17.861 -31.715,27.51 -1.555,1.478 -0.742,5.12 -0.731,7.268 m 32.494,-43.956 c 0.04,-7.727 0.08,-15.454 0.12,-23.181 0.01,-1.687 0.018,-3.374 0.026,-5.06 h 0.01 c 0,-12.727 0.011,-25.453 0.017,-38.18 h -29.873 l 0.018,38.18 h 0.01 l 0.01,1.57 c 0.094,18.09 0.188,36.181 0.282,54.272 2.01,-1.796 4.026,-3.584 6.062,-5.35 6.904,-5.956 13.963,-11.722 21.164,-17.314 1.165,-0.905 2.14,-0.893 2.147,-2.247 0.01,-0.897 0.01,-1.794 0.014,-2.69 m 3.938,7.711 c 0.017,3.163 0.033,6.326 0.049,9.489 0.058,11.111 0.116,22.221 0.173,33.332 0.087,16.723 0.174,33.446 0.261,50.169 9.572,-12.384 19.617,-24.367 30.174,-35.927 0.084,-16.264 0.169,-32.528 0.253,-48.792 0.049,-9.327 0.097,-18.654 0.146,-27.98 0.01,-1.442 0.015,-2.883 0.022,-4.325 -0.784,0.517 -1.566,1.035 -2.345,1.559 -1.979,1.33 -3.954,2.665 -5.914,4.023 -4.324,2.998 -8.614,6.045 -12.841,9.179 -3.035,2.25 -6.056,4.522 -9.038,6.843 -0.21,0.163 -0.95,0.539 -0.949,0.641 0,0.596 0.01,1.192 0.01,1.789 M 1267.36,2.025 h 0.01 c 0.01,-12.727 0.012,-25.453 0.018,-38.18 h -27.387 c 0.01,12.727 0.012,25.453 0.018,38.18 h 0.01 c 10e-4,0.217 0,0.434 0,0.651 0.047,9.121 0.094,18.242 0.142,27.363 0.01,-0.005 0.014,-0.01 0.021,-0.015 0.21,-0.998 2.681,-2.581 3.86,-3.439 2.311,-1.682 4.63,-3.355 6.97,-4.997 4.666,-3.276 9.375,-6.493 14.151,-9.607 2.415,-1.575 2.144,-1.207 2.158,-3.933 0.01,-2.007 0.021,-4.015 0.031,-6.023 m 6.092,0 c 0.01,1.457 0.015,2.915 0.023,4.373 l 29.603,-18.362 c 0,-8.063 0.01,-16.127 0.01,-24.191 h -29.659 c 0.01,12.727 0.012,25.453 0.018,38.18 h 0.01 z m 0.177,34.125 c 0.094,18.003 0.187,36.005 0.281,54.008 9.263,-9.847 18.869,-19.357 28.84,-28.488 0.102,-19.766 0.205,-39.532 0.308,-59.298 h 0.016 c 10e-4,-2.888 0,-5.777 0,-8.665 l -4.222,2.611 h 0.13 c -0.32,0.174 -0.645,0.348 -0.968,0.518 l -24.513,15.159 c 0.042,8.052 0.083,16.103 0.125,24.155 m 64.387,-69.783 c 0,-0.841 10e-4,-1.681 10e-4,-2.522 h -31.379 c 0,7.327 0.01,14.653 0.01,21.979 l 31.371,-19.457 z m -31.366,36.005 h 0.016 c 0.096,18.5 0.192,36.999 0.288,55.499 9.962,-8.892 20.262,-17.385 30.88,-25.482 0.051,-10.006 0.103,-20.011 0.155,-30.017 h 0.016 c 0,-10.09 0.01,-20.181 0.01,-30.271 l -31.367,19.398 c 10e-4,3.625 0,7.249 0,10.873 m 35.431,-38.527 h -0.512 c 0,0.106 0,0.212 0,0.318 z m -0.5,38.527 h 0.016 c 0.047,9.028 0.094,18.055 0.141,27.083 5.879,-4.369 11.835,-8.634 17.901,-12.74 1.572,-1.064 3.147,-2.126 4.731,-3.172 0.402,-0.266 4.516,-2.596 4.517,-2.719 0,-0.492 0.01,-0.985 0.01,-1.477 0.011,-2.325 0.024,-4.65 0.036,-6.975 h 0.016 c 0,-12.842 0.01,-25.684 0.012,-38.527 h -17.595 l -9.793,6.056 c 0,10.824 0.01,21.648 0.01,32.471 m 30.958,0 c 0,0.724 0.01,1.448 0.011,2.172 0.01,1.408 0.015,2.816 0.022,4.224 0,0.007 0,0.015 0,0.022 0.011,-0.007 0.022,-0.013 0.032,-0.02 0.234,-1.193 1.88,-1.752 2.759,-2.3 2.279,-1.421 4.566,-2.827 6.865,-4.216 1.261,-0.757 2.528,-1.504 3.795,-2.252 l -0.01,-0.002 54.156,-36.155 h -67.662 c 0,12.843 0.01,25.685 0.011,38.527 h 0.017 z m 79.776,-38.527 c -20.358,12.571 -59.925,37 -62.445,38.523 -82.162,49.658 -147.591,122.322 -193.506,206.611 -26.534,48.711 -47.006,100.576 -62.001,153.953 -7.472,26.599 -13.653,53.59 -18.26,80.835 -1.216,7.194 -2.351,14.403 -3.33,21.633 -0.288,2.128 -0.677,4.33 -1.013,6.543 v 5.313 c 0,2.52 -2.042,4.562 -4.562,4.562 h -12.773 c -2.519,0 -4.562,-2.042 -4.562,-4.562 v -13.555 c 0,-0.644 0.135,-1.256 0.375,-1.811 h -73.105 v 16.93 c 0,2.52 -2.043,4.562 -4.562,4.562 h -16.684 c -2.519,0 -4.562,-2.042 -4.562,-4.562 v -1.29 h -0.167 c -0.015,-0.435 -0.027,-7.8 -0.037,-20.475 -3.779,-10.968 -8.171,-21.753 -12.65,-32.442 -11.485,-27.409 -25.253,-55.708 -40.018,-82.212 -19.489,-34.981 -41.578,-68.677 -67.168,-99.516 -11.062,-13.33 -22.802,-26.189 -35.287,-38.264 0.001,0.121 0.001,0.241 0.002,0.362 -0.899,-0.959 -1.786,-1.937 -2.67,-2.922 -17.347,-16.481 -36.116,-31.431 -56.478,-44.029 -3.483,-2.154 -7.015,-4.223 -10.584,-6.221 10e-4,0.224 0.002,0.446 0.003,0.673 -0.381,-0.221 -0.758,-0.448 -1.149,-0.643 -0.045,-0.049 -0.106,-0.113 -0.199,-0.206 -0.126,-0.125 -0.226,-0.233 -0.28,-0.29 -0.138,-0.215 -0.266,-0.434 -0.4,-0.654 C 743,139.05 720.347,130.237 696.827,125.028 c -23.843,5.183 -46.908,13.946 -68.535,25.647 -38.139,20.634 -71.437,49.243 -100.686,81.055 -28.453,30.946 -53.246,65.132 -75.354,100.846 -18.012,29.099 -34.279,59.289 -48.871,90.243 -2.978,6.316 -5.786,12.398 -8.475,18.426 -0.011,22.236 -0.027,35.691 -0.047,36.285 h -0.167 v 1.29 c 0,2.52 -2.043,4.562 -4.562,4.562 h -16.684 c -2.519,0 -4.562,-2.042 -4.562,-4.562 v -16.93 h -73.105 c 0.24,0.555 0.375,1.167 0.375,1.811 v 13.555 c 0,2.52 -2.042,4.562 -4.562,4.562 h -12.773 c -2.52,0 -4.562,-2.042 -4.562,-4.562 v -5.313 c -0.336,-2.213 -0.725,-4.415 -1.013,-6.543 -0.979,-7.23 -2.114,-14.439 -3.33,-21.633 -4.606,-27.245 -10.788,-54.235 -18.26,-80.835 C 236.66,309.555 216.188,257.69 189.653,208.979 143.738,124.69 78.309,52.026 -3.853,2.368 -6.373,0.845 -45.94,-23.584 -66.298,-36.155 h -32.657 v -18.054 h 1583.898 v 18.054 h -32.658 z" /></g></g></g></g></svg>