<svg xmlns="http://www.w3.org/2000/svg" viewBox="0 0 367.87 275.09"><defs><style>.cls-1{fill:#f9DC5F;}</style></defs><g id="Layer_2" data-name="Layer 2"><g id="Layer_1-2" data-name="Layer 1"><path class="cls-1" d="M99.61,11.16c-2.75,0-3.56,1.62-4.53,5.67C91.84,30.1,83.43,72,77.28,104.36,70.49,71.52,62.07,26.86,57.7,16.18c-1.78-3.56-5.82-5-10-5-3.72,0-4.85,1.95-4.85,5s2.42,15.37,5.66,30.58c-3.07,7.28-6.63,15.05-8.09,22a258.09,258.09,0,0,0-8.58,38.83c-3.39-15.86-8.25-43.2-9.38-47.73C18.71,40.94,14,17.48,9.81,13.43c-2.1-1.78-6.63-1.78-9.22-.81-2.59,3.72,4,38,7.28,49.67,3.07,18,10.35,47.9,15.37,55,1.94,3.07,7.28,3.4,10.68,1.94,5.5-8.09,10-25.4,13.1-39.48a193.75,193.75,0,0,0,4-21.52c5.18,22,11.65,46.28,15.86,56.31,2.1,4.85,7.12,6.63,12.29,6.63,2.92,0,4-1.13,5.34-4.85,8.74-24.76,23.79-83.17,23.79-99.19C108.35,13.59,103,11.16,99.61,11.16Z"/><path class="cls-1" d="M124.36,29c6.8,0,11.65-4.2,11.65-11.65,0-3.88-2.58-9.06-10.51-9.06-7.45,0-12.3,4.53-12.3,11.17C113.2,24.43,117.08,29,124.36,29Z"/><path class="cls-1" d="M365,89.32c-1.29,0-1.94,1-2.75,2.1-1.13,5.34-2.59,12.94-7.28,12.94-3.88,0-9.38-9.7-14.89-21.52,9.55-12.29,19.26-31.22,19.26-37.53,0-5.51-4.86-7.77-9.55-7.77-1.29,0-2.91.65-3.23,2.1-2.59,11.81-5,22.49-10.2,34.63C330.66,61,325.64,47.08,323.54,41.1c-.81-2.1-2.1-3.24-3.72-3.24a9.22,9.22,0,0,0-3.88.81c-3.89,1.78-6,3.88-6,7a30.14,30.14,0,0,0,1.7,8c-3.94,14.58-9,24-16.91,26.31v-3.4c0-28.31-8.41-39.64-23-39.64-15.78,0-23.69,16.25-25.37,38-6.68,17.18-15.82,30.79-27.37,30.79-7.28,0-13.43-5.34-13.43-21.2C205.59,60,209.31,50,215.14,50c4.2,0,5.66,4.37,5.66,22.81,0,2.91,1.78,4,4.21,4,3.88,0,10.84-3.72,10.84-10.36,0-18.28-6.15-29.61-19.42-29.61-16.53,0-25.66,16.06-26.88,44.26-4.61,14.3-10.18,25.16-16.65,25.16-7.11,0-11.16-8.9-11.81-28.32C176.3,61.81,185.36,43,185.36,23c0-14.89-4.36-23-14.56-23-16.18,0-25.24,23.3-25.24,58.41-.08,7,0,13.39.34,19.13C142,92.3,137.63,104,133.1,104c-3.23,0-5.5-3.24-5.5-13.11,0-13.26,1.46-24.59,1.46-46.11,0-5-5.51-7.28-10.2-7.28-2.26,0-3.72,1-4.37,4.69-1.29,7.28-2.26,34-2.26,48.06,0,19.41,4,30.74,16,30.74,8.47,0,15.34-9.49,20.35-22.12,3.59,15.4,10.48,22.12,21.55,22.12,8.66,0,15.72-7.69,21.07-18.43,3.25,11.33,11.17,18.43,26,18.43,12.95,0,22.86-10.7,29.84-23.72,2.48,14.16,9.53,23.56,22.74,23.56,14.57,0,21.52-13,23.95-29.45,12.12-1,19.69-11.81,22.81-24.51,1.79,4.36,3.93,9.33,6.47,15,1.14,2.43,2.11,4.7,3.24,7-9.87,15.86-17.8,21.36-17.8,24.92,0,2.75,4.53,7.28,8.25,7.28,3.56,0,9.23-11.65,13.92-22.65,7,14.72,12,22.65,20.55,22.65,11.16,0,16.66-14.4,16.66-27C367.87,91.1,366.74,89.32,365,89.32ZM169.18,11.65c2.27,0,4,2.27,4,12,0,10.84-4.53,25.89-12.3,41.59C161.26,26.54,164.49,11.65,169.18,11.65ZM281.8,88.83c-1.3,10.68-4.21,18.12-10,18.12-6.95,0-10.51-8.9-10.51-24.59,0-18.93,3.4-32.85,11.49-32.85,5,0,8.73,4.37,9.54,17.48-3.56,2.59-5.34,7.28-5.34,12A11.62,11.62,0,0,0,281.8,88.83Z"/><path class="cls-1" d="M83.35,153.05v6H93.67v8H83.35v13.54H74.66V145.08h19.4v8Z"/><path class="cls-1" d="M129.53,181.28c-10,0-18.67-7.78-18.67-18a20.47,20.47,0,0,1,1.39-7.59,16.69,16.69,0,0,1,2.3-4,18.89,18.89,0,0,1,33.8,11.13C148.35,173.36,140,181.28,129.53,181.28Zm.1-28.9c-5.81,0-9.7,4.8-9.7,10.37s3.89,10.56,9.79,10.56c5.71,0,9.56-5,9.56-10.42S135.43,152.38,129.63,152.38Z"/><path class="cls-1" d="M183.82,181.28c-10,0-18.68-7.78-18.68-18a20.47,20.47,0,0,1,1.4-7.59,16.36,16.36,0,0,1,2.3-4,18.89,18.89,0,0,1,33.8,11.13C202.64,173.36,194.23,181.28,183.82,181.28Zm.09-28.9c-5.8,0-9.69,4.8-9.69,10.37s3.89,10.56,9.79,10.56c5.71,0,9.55-5,9.55-10.42S189.72,152.38,183.91,152.38Z"/><path class="cls-1" d="M232.92,180.61H220.49V145.08h11.76c6.43,0,11.66,1.06,15.7,6.63a18.76,18.76,0,0,1,3.26,11C251.21,174.41,244.54,180.61,232.92,180.61Zm.58-27.56h-3.94v19.59h3.89c6.19,0,8.69-4,8.69-9.75S239.55,153.05,233.5,153.05Z"/><path class="cls-1" d="M280.82,181.28c-7.15,0-12.81-3.7-12.81-11.28v-1.16h9c0,2.31,1.06,4.85,3.7,4.85a3.43,3.43,0,0,0,3.45-3.41c0-2.3-1.92-3.07-3.79-3.88-1.05-.48-2.11-.92-3.17-1.35-4.6-1.92-8.68-4.61-8.68-10.17,0-6.63,6.38-10.47,12.43-10.47,3.45,0,7.34,1.3,9.6,4a10.43,10.43,0,0,1,2.35,7h-9c-.28-2-1-3.46-3.26-3.46a3,3,0,0,0-3.12,2.79,2.61,2.61,0,0,0,.34,1.49c.86,1.44,5.52,3.26,7,3.93,4.71,2.16,8.31,4.61,8.31,10.18C293.21,177.82,287.83,181.28,280.82,181.28Z"/><path class="cls-1" d="M37,194c-2.2-2.25-6-3.23-8.42-.82-2.08,2-1.59,4.53-.63,6.94.23.55.45,1.1.66,1.67.38,1,.79,2-.07,2.83a1.78,1.78,0,0,1-2.52,0c-1-1-.4-2.31.45-3.15L23.2,198l-.42.42c-2.83,2.76-2.14,6.21.47,8.87s5.8,3.35,8.56.64c2.08-2,1.68-4.26.77-6.79-.29-.8-1.31-3.2-1.09-4a1.29,1.29,0,0,1,.43-.66,1.53,1.53,0,0,1,2.17.14c.84.86.53,1.65-.09,2.48l3.27,3.34A5.46,5.46,0,0,0,39,199,6.56,6.56,0,0,0,37,194Z"/><path class="cls-1" d="M38.56,221.34l4,3.12L45,223,50,226.89l-.93,2.67,4,3.14,5.57-19.11-2.94-2.28Zm12.8,1.83-3.06-2.38L53.69,217l0,0,0,0Z"/><polygon class="cls-1" points="79.36 240.83 79.29 240.85 78.83 227.21 75.29 225.19 66.13 241.27 70.06 243.51 75.51 233.69 75.57 233.69 76.13 246.96 79.69 248.99 88.85 232.91 84.92 230.67 79.36 240.83"/><polygon class="cls-1" points="114.28 263.56 118.61 264.89 120.68 258.15 125.81 259.73 127.03 255.76 121.89 254.18 122.82 251.17 128.15 252.81 129.37 248.84 119.71 245.87 114.28 263.56"/><path class="cls-1" d="M148.35,253.11l-5.76-1-3.24,18.22,4.46.79,1-5.89h.05l3.17,6.63,5.32.95-3.85-7.08a5.59,5.59,0,0,0,5.55-4.94,6.43,6.43,0,0,0-1.36-5.37C152.38,253.88,150.27,253.45,148.35,253.11Zm2.23,7.15c-.33,1.87-1.76,2.38-3.51,2.07l-1.65-.29.9-5.07,1.7.3C149.62,257.55,150.9,258.47,150.58,260.26Z"/><path class="cls-1" d="M175.59,256.19l-8.11,18.21,5.08.19,1.07-2.63,6.42.23.8,2.71,5.12.19-6.66-18.76Zm-.52,12.07L177.2,262h.07l1.67,6.39Z"/><polygon class="cls-1" points="210.51 254.86 211.95 266.35 211.91 266.41 203.55 255.61 199.5 256.05 201.48 274.45 205.99 273.96 204.66 262.81 204.7 262.78 212.92 273.21 217 272.77 215.01 254.38 210.51 254.86"/><path class="cls-1" d="M241.46,263.8c-2.92.77-5.48-1.3-6.21-4.06s.51-5.72,3.42-6.48a4.78,4.78,0,0,1,5.14,2L248.6,254a7.76,7.76,0,0,0-2-2.6,9.62,9.62,0,1,0,3.14,7L245,259.64A4.87,4.87,0,0,1,241.46,263.8Z"/><rect class="cls-1" x="262.8" y="240.99" width="4.73" height="18.5" transform="translate(-73.82 115.98) rotate(-21.73)"/><path class="cls-1" d="M287.78,238.16c-.85.05-3.43.35-4.18-.11a1.38,1.38,0,0,1-.52-.6,1.54,1.54,0,0,1,.76-2c1.06-.56,1.74,0,2.35.8l4.13-2.18a5.41,5.41,0,0,0-2.79-2.66,6.6,6.6,0,0,0-5.4.48c-2.78,1.47-4.79,4.79-3.18,7.84,1.35,2.56,3.88,2.81,6.47,2.57.6,0,1.19-.11,1.79-.15,1.06-.08,2.13-.19,2.69.87a1.78,1.78,0,0,1-.76,2.41c-1.22.64-2.32-.27-2.88-1.33l-4.16,2.19.28.53c1.84,3.49,5.35,3.82,8.65,2.08s4.86-4.6,3.05-8C292.73,238.27,290.47,238,287.78,238.16Z"/><path class="cls-1" d="M316.91,223.91a4.86,4.86,0,0,1-1.79,5.14c-2.45,1.77-5.58.75-7.25-1.56s-1.57-5.53.87-7.28a4.8,4.8,0,0,1,5.52,0l4-2.89a7.89,7.89,0,0,0-2.78-1.73,9.68,9.68,0,1,0,2.08,16.79A9.48,9.48,0,0,0,320.93,221Z"/><path class="cls-1" d="M344.15,196.46a9.84,9.84,0,0,0-16.61,8.22,8.71,8.71,0,0,0,.6,2.32,10.79,10.79,0,0,0,2.26,3.33,9.77,9.77,0,0,0,13.75-13.87Zm-3.09,10.69a5.47,5.47,0,1,1-.26-7.35A5.19,5.19,0,0,1,341.06,207.15Z"/></g></g></svg>