<svg xmlns="http://www.w3.org/2000/svg" viewBox="0 0 180.87 89.13"><defs><style>.cls-1{fill:#231f20;}</style></defs><g id="Layer_2" data-name="Layer 2"><g id="Layer_1-2" data-name="Layer 1"><path d="M49,5.49c-1.35,0-1.75.79-2.22,2.78C45.16,14.8,41,35.4,38,51.31,34.65,35.16,30.52,13.21,28.37,8c-.88-1.76-2.86-2.47-4.93-2.47-1.83,0-2.39,1-2.39,2.47s1.19,7.55,2.79,15c-1.52,3.58-3.27,7.4-4,10.82A126.87,126.87,0,0,0,15.64,52.9C14,45.11,11.58,31.66,11,29.43,9.2,20.13,6.89,8.59,4.82,6.6c-1-.87-3.26-.87-4.53-.4C-1,8,2.28,24.9,3.87,30.63,5.38,39.46,9,54.18,11.43,57.68c1,1.51,3.58,1.67,5.25,1,2.7-4,4.93-12.49,6.44-19.41a97.12,97.12,0,0,0,2-10.58c2.54,10.82,5.73,22.75,7.79,27.68,1,2.39,3.5,3.26,6.05,3.26,1.43,0,2-.55,2.63-2.38C45.87,45,53.27,16.31,53.27,8.43,53.27,6.68,50.64,5.49,49,5.49Z"/><path d="M61.14,14.24a5.34,5.34,0,0,0,5.73-5.73c0-1.91-1.27-4.45-5.17-4.45-3.66,0-6,2.22-6,5.49C55.66,12,57.56,14.24,61.14,14.24Z"/><path d="M179.44,43.91c-.64,0-1,.48-1.36,1-.55,2.62-1.27,6.36-3.58,6.36-1.91,0-4.61-4.77-7.32-10.58,4.7-6,9.47-15.35,9.47-18.46,0-2.7-2.39-3.81-4.69-3.81a1.54,1.54,0,0,0-1.59,1,89.46,89.46,0,0,1-5,17c-2.78-6.52-5.25-13.36-6.28-16.3-.4-1-1-1.59-1.83-1.59a4.52,4.52,0,0,0-1.91.39c-1.91.88-2.94,1.91-2.94,3.42a14.71,14.71,0,0,0,.83,3.93c-1.93,7.17-4.42,11.82-8.31,12.94V37.63c0-13.92-4.14-19.49-11.3-19.49-7.76,0-11.64,8-12.47,18.67C117.85,45.26,113.36,52,107.68,52c-3.58,0-6.6-2.63-6.6-10.42,0-12,1.83-17,4.69-17,2.07,0,2.79,2.15,2.79,11.22a1.82,1.82,0,0,0,2.07,2c1.9,0,5.32-1.83,5.32-5.09,0-9-3-14.56-9.54-14.56C98.28,18.14,93.8,26,93.2,39.9c-2.27,7-5,12.37-8.19,12.37-3.5,0-5.49-4.38-5.81-13.93,7.48-8,11.94-17.18,11.94-27C91.14,4,89,0,84,0,76,0,71.57,11.46,71.57,28.72c0,3.45,0,6.58.16,9.41-1.93,7.25-4.06,13-6.29,13-1.59,0-2.7-1.59-2.7-6.44,0-6.53.71-12.09.71-22.67,0-2.47-2.7-3.58-5-3.58-1.11,0-1.83.47-2.15,2.3-.63,3.58-1.11,16.71-1.11,23.63,0,9.55,2,15.11,7.87,15.11,4.17,0,7.55-4.66,10-10.87,1.76,7.57,5.15,10.87,10.6,10.87,4.25,0,7.73-3.77,10.35-9,1.6,5.56,5.5,9,12.8,9,6.37,0,11.24-5.26,14.67-11.66,1.22,7,4.68,11.59,11.18,11.59,7.16,0,10.58-6.37,11.77-14.48,6-.49,9.69-5.81,11.22-12.05.88,2.14,1.93,4.58,3.18,7.35.56,1.2,1,2.31,1.59,3.42-4.85,7.8-8.75,10.51-8.75,12.26,0,1.35,2.23,3.57,4.06,3.57s4.53-5.72,6.84-11.13c3.42,7.24,5.89,11.13,10.1,11.13,5.49,0,8.2-7.08,8.2-13.28C180.87,44.79,180.31,43.91,179.44,43.91ZM83.18,5.73c1.11,0,2,1.11,2,5.88,0,5.33-2.23,12.73-6,20.45C79.28,13.05,80.87,5.73,83.18,5.73Zm55.37,37.94c-.64,5.25-2.07,8.91-4.94,8.91-3.42,0-5.17-4.37-5.17-12.09,0-9.31,1.67-16.15,5.65-16.15,2.47,0,4.3,2.15,4.7,8.59a7.25,7.25,0,0,0-2.63,5.89A5.71,5.71,0,0,0,138.55,43.67Z"/><path class="cls-1" d="M41,75.25v3h5.08v3.92H41V88.8H36.71V71.33h9.53v3.92Z"/><path class="cls-1" d="M63.68,89.13a9,9,0,0,1-9.18-8.85,10.08,10.08,0,0,1,.69-3.73,8,8,0,0,1,1.13-2,9.18,9.18,0,1,1,7.36,14.54Zm0-14.21A4.85,4.85,0,0,0,59,80a4.77,4.77,0,1,0,4.77-5.1Z"/><path class="cls-1" d="M90.38,89.13a9,9,0,0,1-9.19-8.85,10.08,10.08,0,0,1,.69-3.73,8,8,0,0,1,1.13-2,9.18,9.18,0,1,1,7.37,14.54Zm0-14.21A4.85,4.85,0,0,0,85.65,80a4.77,4.77,0,1,0,4.77-5.1Z"/><path class="cls-1" d="M114.52,88.8H108.4V71.33h5.79c3.16,0,5.73.52,7.71,3.26A9.17,9.17,0,0,1,123.51,80C123.51,85.75,120.23,88.8,114.52,88.8Zm.28-13.55h-1.93v9.63h1.91c3,0,4.27-2,4.27-4.79S117.77,75.25,114.8,75.25Z"/><path class="cls-1" d="M138.07,89.13c-3.52,0-6.3-1.82-6.3-5.55V83h4.43c0,1.14.52,2.39,1.82,2.39a1.69,1.69,0,0,0,1.7-1.68c0-1.13-.94-1.51-1.86-1.91-.52-.24-1-.45-1.56-.66-2.27-1-4.27-2.27-4.27-5,0-3.26,3.14-5.15,6.11-5.15a6.24,6.24,0,0,1,4.72,2A5.14,5.14,0,0,1,144,76.43H139.6c-.14-1-.47-1.7-1.6-1.7a1.46,1.46,0,0,0-1.54,1.37,1.3,1.3,0,0,0,.17.73c.42.71,2.71,1.6,3.45,1.93,2.31,1.07,4.08,2.27,4.08,5C144.16,87.43,141.51,89.13,138.07,89.13Z"/></g></g></svg>